<svg width="32" height="32" viewBox="0 0 32 32" fill="none" xmlns="http://www.w3.org/2000/svg">
<g clip-path="url(#clip0_43_163)">
<path d="M0 5.33333C0 2.38781 2.38781 0 5.33333 0H26.6667C29.6122 0 32 2.38781 32 5.33333V26.6667C32 29.6122 29.6122 32 26.6667 32H5.33333C2.38781 32 0 29.6122 0 26.6667V5.33333Z" fill="#E0D44E"/>
<path d="M22.7588 16.2756C22.207 18.4825 21.342 24.8566 18.1038 24.8566C12.107 24.8566 10.0337 22.4533 10.0337 19.4888C12.635 18.663 16.4557 12.2756 19.6938 12.2756C22.932 12.2756 23.442 13.5428 22.7588 16.2756Z" fill="#FCF0A8" fill-opacity="0.7"/>
<path d="M1.15625 19.0355C1.15625 18.2991 1.7532 17.7021 2.48958 17.7021H4.40035C5.19599 17.7021 5.92784 18.1375 6.30751 18.8367C6.94029 20.0021 8.16004 20.7277 9.4861 20.7277H22.5141C23.8402 20.7277 25.06 20.0021 25.6927 18.8367C26.0724 18.1375 26.8043 17.7021 27.5999 17.7021H29.5107C30.247 17.7021 30.844 18.2991 30.844 19.0355V26.5772C30.844 28.9336 28.9337 30.8439 26.5773 30.8439H5.42292C3.0665 30.8439 1.15625 28.9336 1.15625 26.5772V19.0355Z" fill="#1B4437"/>
<path d="M8.21915 15.3183C8.13638 16.0721 8.23965 16.7882 8.81743 17.2794C11.4765 19.5395 16.2385 20.924 20.085 18.5424C22.2571 17.1976 23.3141 16.1493 23.5418 13.8559C23.8823 10.4259 21.9131 8.3384 18.4231 6.5768C18.0575 6.39225 17.9911 7.00889 16.9274 6.64328C15.2122 4.67025 9.90519 0.573957 10.0472 3.48569C10.1137 4.84844 10.7452 6.14471 11.2438 7.93955C9.24952 9.80086 8.95038 10.6709 8.95038 12.9585C8.95038 14.3544 8.2812 14.7533 8.21915 15.3183Z" fill="#FBEDA3"/>
<path d="M9.18317 15.8502C8.81755 15.7283 8.78431 15.3848 8.85079 15.2186C8.96082 14.9436 9.15683 14.8788 9.34936 14.6536C9.67788 14.2693 9.54878 13.8891 10.1803 13.9556C10.645 14.0045 10.5007 14.7008 10.3797 15.1522C10.2647 15.5813 9.78145 16.0496 9.18317 15.8502Z" fill="#F6B251" fill-opacity="0.24"/>
<path d="M20.2514 13.4904C20.2514 11.33 19.6531 8.70418 19.0548 7.74028C17.9912 6.51049 22.5116 8.40504 23.1763 11.9615C23.4065 13.193 20.2514 14.0554 20.2514 13.4904Z" fill="#F6B251" fill-opacity="0.24"/>
<path d="M9.48226 13.8558C9.5809 13.3626 9.44902 12.626 9.2496 12.1606C9.00841 11.5979 9.41578 12.8254 9.38255 13.7228C9.37747 13.8598 9.44902 14.022 9.48226 13.8558Z" fill="black"/>
<path d="M19.9521 13.4568C18.39 11.7285 17.6587 10.2992 15.4983 11.0637C15.731 9.86714 16.2295 8.83677 17.2599 7.83964C19.0709 6.08706 19.7195 9.96685 19.9521 13.4568Z" fill="#F6B251"/>
<path d="M12.4071 8.006C12.0415 7.44096 11.8089 7.64039 11.5762 7.70686C10.6123 5.87879 9.82956 2.46328 10.6123 3.81804C11.4765 5.31374 12.2077 6.47706 12.4071 8.006Z" fill="#F6B251"/>
<path d="M9.01717 16.947C8.58508 17.0911 8.4189 16.3155 8.35242 15.9167C8.27697 15.464 9.11689 15.9499 9.51574 16.249C9.79224 16.4564 9.31631 16.8473 9.01717 16.947Z" fill="#F6B251"/>
<ellipse cx="14.2353" cy="16.8474" rx="1.69513" ry="0.930657" transform="rotate(-7.15277 14.2353 16.8474)" fill="#F6B251" fill-opacity="0.24"/>
<path d="M11.942 14.8198C11.7426 14.5206 11.5436 14.7725 11.4767 14.6204C11.111 13.7894 13.4827 15.3095 14.5013 16.1825C14.9666 16.5814 13.338 15.4181 13.1053 15.4181C13.1053 15.8834 13.2283 16.6467 12.6732 16.7476C11.942 16.8805 11.9088 15.2851 11.942 14.8198Z" fill="black"/>
<path d="M24.2522 21.5987C24.0944 22.7049 22.8475 23.442 21.4673 23.245C20.0871 23.048 19.0962 21.9916 19.2541 20.8854C19.4119 19.7792 20.6588 19.0421 22.039 19.2391C23.4192 19.4361 24.4101 20.4925 24.2522 21.5987Z" fill="#FBEDA3"/>
<path d="M12.4329 20.5293C12.6345 21.6283 11.6863 22.7232 10.315 22.9748C8.94372 23.2264 7.66861 22.5394 7.46697 21.4403C7.26534 20.3413 8.21354 19.2464 9.58484 18.9948C10.9561 18.7432 12.2313 19.4302 12.4329 20.5293Z" fill="#FBEDA3"/>
</g>
<defs>
<clipPath id="clip0_43_163">
<rect width="32" height="32" fill="white"/>
</clipPath>
</defs>
</svg>
